<svg xmlns="http://www.w3.org/2000/svg" version="1.1" xmlns:xlink="http://www.w3.org/1999/xlink" xmlns:svgjs="http://svgjs.dev/svgjs" width="45.852962" height="45.854752"><svg width="45.852962" height="45.854752" viewBox="0 0 12.13193 12.132403" version="1.1" id="SvgjsSvg1012" inkscape:version="1.3.2 (091e20e, 2023-11-25, custom)" sodipodi:docname="cog.svg" xmlns:inkscape="http://www.inkscape.org/namespaces/inkscape" xmlns:sodipodi="http://sodipodi.sourceforge.net/DTD/sodipodi-0.dtd" xmlns="http://www.w3.org/2000/svg" xmlns:svg="http://www.w3.org/2000/svg">
  <sodipodi:namedview id="SvgjsSodipodi:namedview1011" pagecolor="#ffffff" bordercolor="#000000" borderopacity="0.25" inkscape:showpageshadow="2" inkscape:pageopacity="0.0" inkscape:pagecheckerboard="0" inkscape:deskcolor="#d1d1d1" inkscape:document-units="mm" inkscape:zoom="5.8511223" inkscape:cx="-4.7854067" inkscape:cy="36.659633" inkscape:window-width="1920" inkscape:window-height="1017" inkscape:window-x="-8" inkscape:window-y="-8" inkscape:window-maximized="1" inkscape:current-layer="svg1"></sodipodi:namedview>
  <defs id="SvgjsDefs1010"></defs>
  <path id="SvgjsPath1009" style="display:inline;fill:#000000;fill-opacity:1;stroke:#000000;stroke-width:0.134879" d="M 0.68073017,3.3965095 1.3058402,4.094557 1.3750832,4.1327447 2.0964551,4.430484 1.8105694,5.4982265 1.0367994,5.3945974 0.95789902,5.3937969 0.06757046,5.6853213 0.06744739,6.4472464 0.95774322,6.7386868 1.0367851,6.7371822 1.8104498,6.6342895 2.0961863,7.7020787 1.3749851,7.9993559 1.3062273,8.0378318 0.68066975,8.7358231 1.0612918,9.3953488 1.9788068,9.2024636 2.0462894,9.1620622 2.6643213,8.6858786 3.4464824,9.4674394 2.9701782,10.085716 l -0.040422,0.06795 -0.192785,0.916824 0.6596577,0.380853 0.6975995,-0.625367 0.038638,-0.06898 0.2972918,-0.72163 1.0674846,0.286332 -0.1029237,0.773582 -0.00125,0.07864 0.2917139,0.891034 0.7614762,-1.41e-4 0.2916995,-0.890744 -0.00106,-0.07878 -0.1035985,-0.773476 1.0680466,-0.286182 0.2977252,0.72146 0.037768,0.06894 0.6979913,0.625557 0.6597841,-0.381069 -0.1926968,-0.91681 -0.040143,-0.06793 -0.4766313,-0.6182902 0.7817493,-0.7814556 0.6185354,0.4758567 0.06725,0.040617 0.917527,0.1925953 0.380854,-0.6596573 -0.625816,-0.697858 -0.06854,-0.038383 -0.72163,-0.2972917 0.285885,-1.0677427 0.77403,0.1031822 0.07864,0.00125 0.890329,-0.2915243 1.24e-4,-0.7619247 -0.890745,-0.2916994 -0.07833,0.00132 -0.773923,0.1033401 -0.286182,-1.0680466 0.721649,-0.2970189 0.06876,-0.038476 L 11.45127,3.3965805 11.070648,2.7370548 10.153133,2.9299409 10.08565,2.9703423 9.4671707,3.4462675 8.6857151,2.6645182 9.1620194,2.0462408 9.2021864,1.9787295 9.3952293,1.0614591 8.7355716,0.68060556 8.0377136,1.3064209 7.9993306,1.3749622 7.7020389,2.0965924 6.6338488,1.8104483 6.7372199,1.0371252 6.7384672,0.9584828 6.4467538,0.06744813 5.6852767,0.06758255 5.3935773,0.958327 5.394635,1.0371109 5.4977861,1.8103281 4.4301869,2.0967686 4.132721,1.3748618 4.0942451,1.3061041 3.3967024,0.6808055 2.7369174,1.0618747 2.9296142,1.978684 2.9700156,2.0461667 3.4463877,2.664904 2.6646383,3.4463597 2.046361,2.9700554 1.978408,2.9296334 1.0615855,2.7368488 Z M 2.9269033,4.8628033 4.1338945,5.55966 a 2,2 0 0 0 0.512026,1.910907 L 3.9488054,8.6780057 A 3.3719757,3.3719757 0 0 1 2.9269033,4.8628033 Z M 3.4545197,3.9489449 A 3.3719757,3.3719757 0 0 1 7.2692746,2.9267844 L 6.5734514,4.1319854 A 2,2 0 0 0 4.6597207,4.644768 Z M 5.2001258,5.56601 A 1,1 0 0 1 6.5660679,5.2000069 1,1 0 0 1 6.9320709,6.565949 1,1 0 0 1 5.5661289,6.9319521 1,1 0 0 1 5.2001258,5.56601 Z M 4.8626638,9.2056221 5.5597788,7.9981835 A 2,2 0 0 0 7.4706858,7.4861574 L 8.6776771,8.1830141 A 3.3719757,3.3719757 0 0 1 4.8626638,9.2056221 Z M 7.4862763,4.661392 8.183133,3.4544008 A 3.3719757,3.3719757 0 0 1 9.2052935,7.2691557 L 7.9983022,6.572299 A 2,2 0 0 0 7.4862763,4.661392 Z"></path>
</svg><style>@media (prefers-color-scheme: light) { :root { filter: none; } }
@media (prefers-color-scheme: dark) { :root { filter: invert(100%); } }
</style></svg>